<svg width="36" height="36" viewBox="0 0 36 36" fill="none" xmlns="http://www.w3.org/2000/svg">
<path d="M13.3649 31.005C13.0799 31.005 12.7949 30.9 12.5699 30.675C12.1349 30.24 12.1349 29.52 12.5699 29.085L22.3499 19.305C23.0699 18.585 23.0699 17.415 22.3499 16.695L12.5699 6.91503C12.1349 6.48003 12.1349 5.76003 12.5699 5.32503C13.0049 4.89003 13.7249 4.89003 14.1599 5.32503L23.9399 15.105C24.7049 15.87 25.1399 16.905 25.1399 18C25.1399 19.095 24.7199 20.13 23.9399 20.895L14.1599 30.675C13.9349 30.885 13.6499 31.005 13.3649 31.005Z" fill="#F4F8FF"/>
</svg>
