<svg width="615" height="615" viewBox="0 0 615 615" fill="none" xmlns="http://www.w3.org/2000/svg">
<path d="M559.664 9.93489L307.376 262.223L55.0877 9.93489C49.0198 4.38221 41.0435 1.38475 32.8204 1.56695C24.5974 1.74915 16.7617 5.09697 10.9457 10.913C5.12972 16.729 1.78191 24.5646 1.59971 32.7877C1.41751 41.0107 4.41496 48.987 9.96764 55.0549L262.128 307.343L9.90365 559.567C6.8222 562.504 4.35891 566.027 2.65858 569.929C0.95824 573.831 0.0551635 578.034 0.00244918 582.29C-0.0502652 586.547 0.748446 590.771 2.35162 594.714C3.95479 598.657 6.33006 602.24 9.33784 605.252C12.3456 608.264 15.9252 610.644 19.8661 612.253C23.807 613.862 28.0298 614.667 32.2862 614.62C36.5426 614.573 40.7467 613.676 44.6515 611.981C48.5562 610.286 52.0827 607.828 55.0237 604.751L307.376 352.527L559.664 604.815C565.732 610.368 573.708 613.365 581.931 613.183C590.154 613.001 597.99 609.653 603.806 603.837C609.622 598.021 612.969 590.185 613.152 581.962C613.334 573.739 610.336 565.763 604.784 559.695L352.496 307.407L604.784 55.0549C607.865 52.1183 610.328 48.5953 612.029 44.693C613.729 40.7907 614.632 36.5878 614.685 32.3315C614.738 28.0752 613.939 23.8512 612.336 19.908C610.733 15.9648 608.357 12.3819 605.349 9.36984C602.342 6.3578 598.762 3.97744 594.821 2.36868C590.88 0.759923 586.657 -0.0447606 582.401 0.00192066C578.145 0.0486019 573.941 0.945712 570.036 2.64052C566.131 4.33532 562.605 6.79361 559.664 9.87089V9.93489Z" fill="black"/>
</svg>
