<svg width="70" height="70" viewBox="0 0 70 70" fill="none" xmlns="http://www.w3.org/2000/svg">
<circle cx="35" cy="35" r="34.5" stroke="white"/>
<path d="M20.94 35.46H16.68V39.78H14.98V35.46H10.74V33.92H14.98V29.58H16.68V33.92H20.94V35.46ZM24.1723 40.54C25.8657 39.18 27.1923 38.0667 28.1523 37.2C29.1123 36.32 29.919 35.4067 30.5723 34.46C31.239 33.5 31.5723 32.56 31.5723 31.64C31.5723 30.7733 31.359 30.0933 30.9323 29.6C30.519 29.0933 29.8457 28.84 28.9123 28.84C28.0057 28.84 27.299 29.1267 26.7923 29.7C26.299 30.26 26.0323 31.0133 25.9923 31.96H24.2323C24.2857 30.4667 24.739 29.3133 25.5923 28.5C26.4457 27.6867 27.5457 27.28 28.8923 27.28C30.2657 27.28 31.3523 27.66 32.1523 28.42C32.9657 29.18 33.3723 30.2267 33.3723 31.56C33.3723 32.6667 33.039 33.7467 32.3723 34.8C31.719 35.84 30.9723 36.76 30.1323 37.56C29.2923 38.3467 28.219 39.2667 26.9123 40.32H33.7923V41.84H24.1723V40.54ZM36.1763 40.54C37.8696 39.18 39.1963 38.0667 40.1562 37.2C41.1163 36.32 41.9229 35.4067 42.5763 34.46C43.2429 33.5 43.5763 32.56 43.5763 31.64C43.5763 30.7733 43.3629 30.0933 42.9363 29.6C42.5229 29.0933 41.8496 28.84 40.9163 28.84C40.0096 28.84 39.3029 29.1267 38.7963 29.7C38.3029 30.26 38.0363 31.0133 37.9963 31.96H36.2363C36.2896 30.4667 36.7429 29.3133 37.5963 28.5C38.4496 27.6867 39.5496 27.28 40.8963 27.28C42.2696 27.28 43.3563 27.66 44.1563 28.42C44.9696 29.18 45.3763 30.2267 45.3763 31.56C45.3763 32.6667 45.0429 33.7467 44.3763 34.8C43.7229 35.84 42.9763 36.76 42.1363 37.56C41.2963 38.3467 40.2229 39.2667 38.9163 40.32H45.7963V41.84H36.1763V40.54ZM51.0402 34.48C50.2935 34.1867 49.7202 33.76 49.3202 33.2C48.9202 32.64 48.7202 31.96 48.7202 31.16C48.7202 30.44 48.9002 29.7933 49.2602 29.22C49.6202 28.6333 50.1535 28.1733 50.8602 27.84C51.5802 27.4933 52.4468 27.32 53.4602 27.32C54.4735 27.32 55.3335 27.4933 56.0402 27.84C56.7602 28.1733 57.3002 28.6333 57.6602 29.22C58.0335 29.7933 58.2202 30.44 58.2202 31.16C58.2202 31.9333 58.0135 32.6133 57.6002 33.2C57.1868 33.7733 56.6202 34.2 55.9002 34.48C56.7268 34.7333 57.3802 35.18 57.8602 35.82C58.3535 36.4467 58.6002 37.2067 58.6002 38.1C58.6002 38.9667 58.3868 39.7267 57.9602 40.38C57.5335 41.02 56.9268 41.52 56.1402 41.88C55.3668 42.2267 54.4735 42.4 53.4602 42.4C52.4468 42.4 51.5535 42.2267 50.7802 41.88C50.0202 41.52 49.4268 41.02 49.0002 40.38C48.5735 39.7267 48.3602 38.9667 48.3602 38.1C48.3602 37.2067 48.6002 36.44 49.0802 35.8C49.5602 35.16 50.2135 34.72 51.0402 34.48ZM56.4602 31.38C56.4602 30.5667 56.1935 29.94 55.6602 29.5C55.1268 29.06 54.3935 28.84 53.4602 28.84C52.5402 28.84 51.8135 29.06 51.2802 29.5C50.7468 29.94 50.4802 30.5733 50.4802 31.4C50.4802 32.1467 50.7535 32.7467 51.3002 33.2C51.8602 33.6533 52.5802 33.88 53.4602 33.88C54.3535 33.88 55.0735 33.6533 55.6202 33.2C56.1802 32.7333 56.4602 32.1267 56.4602 31.38ZM53.4602 35.28C52.4735 35.28 51.6668 35.5133 51.0402 35.98C50.4135 36.4333 50.1002 37.12 50.1002 38.04C50.1002 38.8933 50.4002 39.58 51.0002 40.1C51.6135 40.62 52.4335 40.88 53.4602 40.88C54.4868 40.88 55.3002 40.62 55.9002 40.1C56.5002 39.58 56.8002 38.8933 56.8002 38.04C56.8002 37.1467 56.4935 36.4667 55.8802 36C55.2668 35.52 54.4602 35.28 53.4602 35.28Z" fill="white"/>
</svg>
